<svg width="30" height="30" viewBox="0 0 30 30" fill="none" xmlns="http://www.w3.org/2000/svg">
<path d="M7.5 16.25H2.5C1.75 16.25 1.25 16.75 1.25 17.5V27.5C1.25 28.25 1.75 28.75 2.5 28.75H7.5C8.25 28.75 8.75 28.25 8.75 27.5V17.5C8.75 16.75 8.25 16.25 7.5 16.25ZM27.5 11.25H22.5C21.75 11.25 21.25 11.75 21.25 12.5V27.5C21.25 28.25 21.75 28.75 22.5 28.75H27.5C28.25 28.75 28.75 28.25 28.75 27.5V12.5C28.75 11.75 28.25 11.25 27.5 11.25ZM17.5 1.25H12.5C11.75 1.25 11.25 1.75 11.25 2.5V27.5C11.25 28.25 11.75 28.75 12.5 28.75H17.5C18.25 28.75 18.75 28.25 18.75 27.5V2.5C18.75 1.75 18.25 1.25 17.5 1.25Z" fill="black"/>
</svg>
