<svg width="24" height="24" viewBox="0 0 24 24" fill="none" xmlns="http://www.w3.org/2000/svg">
<path d="M7 18C5.9 18 4.95833 17.6083 4.175 16.825C3.39167 16.0417 3 15.1 3 14C3 12.9 3.39167 11.9583 4.175 11.175C4.95833 10.3917 5.9 10 7 10C8.1 10 9.04167 10.3917 9.825 11.175C10.6083 11.9583 11 12.9 11 14C11 15.1 10.6083 16.0417 9.825 16.825C9.04167 17.6083 8.1 18 7 18ZM16.5 14C14.9667 14 13.6667 13.4667 12.6 12.4C11.5333 11.3333 11 10.0333 11 8.5C11 6.96667 11.5333 5.66667 12.6 4.6C13.6667 3.53333 14.9667 3 16.5 3C18.0333 3 19.3333 3.53333 20.4 4.6C21.4667 5.66667 22 6.96667 22 8.5C22 10.0333 21.4667 11.3333 20.4 12.4C19.3333 13.4667 18.0333 14 16.5 14ZM14.5 21C13.6667 21 12.9583 20.7083 12.375 20.125C11.7917 19.5417 11.5 18.8333 11.5 18C11.5 17.1667 11.7917 16.4583 12.375 15.875C12.9583 15.2917 13.6667 15 14.5 15C15.3333 15 16.0417 15.2917 16.625 15.875C17.2083 16.4583 17.5 17.1667 17.5 18C17.5 18.8333 17.2083 19.5417 16.625 20.125C16.0417 20.7083 15.3333 21 14.5 21Z" fill="#4F46E5"/>
</svg>
